<svg viewBox="0 0 22 22" xmlns="http://www.w3.org/2000/svg">
  <path fill-rule="evenodd" clip-rule="evenodd" d="M11.707 3.29273L10.9999 2.58563L10.2928 3.29275L6.29288 7.29275C5.90236 7.68328 5.90237 8.31645 6.2929 8.70696C6.68343 9.09748 7.3166 9.09747 7.70712 8.70694L10.9999 5.41406L14.2929 8.70696C14.6834 9.09748 15.3166 9.09747 15.7071 8.70694C16.0976 8.31641 16.0976 7.68325 15.7071 7.29273L11.707 3.29273ZM7.7071 13.2929C7.31657 12.9023 6.6834 12.9023 6.29288 13.2929C5.90236 13.6834 5.90237 14.3166 6.2929 14.7071L10.293 18.7071L11.0001 19.4142L11.7072 18.7071L15.7071 14.7071C16.0976 14.3165 16.0976 13.6834 15.7071 13.2929C15.3166 12.9023 14.6834 12.9023 14.2929 13.2929L11.0001 16.5858L7.7071 13.2929Z" />
</svg>
