<svg viewBox="0 0 22 22" xmlns="http://www.w3.org/2000/svg">
  <path fill-rule="evenodd" clip-rule="evenodd" d="M3 3V9L5.29289 6.70711L8.29289 9.70711C8.68342 10.0976 9.31658 10.0976 9.70711 9.70711C10.0976 9.31658 10.0976 8.68342 9.70711 8.29289L6.70711 5.29289L9 3H3ZM3 19V13L5.29289 15.2929L8.29289 12.2929C8.68342 11.9024 9.31658 11.9024 9.70711 12.2929C10.0976 12.6834 10.0976 13.3166 9.70711 13.7071L6.70711 16.7071L9 19H3ZM19 9V3H13L15.2929 5.29289L12.2929 8.29289C11.9024 8.68342 11.9024 9.31658 12.2929 9.70711C12.6834 10.0976 13.3166 10.0976 13.7071 9.70711L16.7071 6.70711L19 9ZM19 19V13L16.7071 15.2929L13.7071 12.2929C13.3166 11.9024 12.6834 11.9024 12.2929 12.2929C11.9024 12.6834 11.9024 13.3166 12.2929 13.7071L15.2929 16.7071L13 19H19Z" />
</svg>
