<svg viewBox="0 0 22 22" xmlns="http://www.w3.org/2000/svg">
  <path fill-rule="evenodd" clip-rule="evenodd" d="M3 3V4V18V19H4H10H10.4142L10.7071 18.7071L14.7071 14.7071L15 14.4142V14L15 11H13L13 13H9V17H5L5 5H13L13 6H15L15 4V3H14L4 3H3ZM7 9L11 6V8H14.5V8.00002C17.5376 8.00003 20 10.4625 20 13.5C20 16.5376 17.5375 19 14.5 19C13.714 19 12.9665 18.8352 12.2903 18.5381L13.8826 16.9458C14.083 16.9814 14.2893 17 14.5 17C16.433 17 18 15.433 18 13.5C18 11.567 16.433 10 14.5 10V10H11V12L7 9Z" />
</svg>
