<svg width="24" height="24" viewBox="0 0 24 24" fill="none" xmlns="http://www.w3.org/2000/svg">
<path fill-rule="evenodd" clip-rule="evenodd" d="M6 20C6 20.5523 6.44772 21 7 21H22C22.5523 21 23 20.5523 23 20V14.125C23 13.8641 22.898 13.6135 22.7158 13.4267L17.7158 8.30168C17.5276 8.10878 17.2695 8 17 8H7C6.44772 8 6 8.44771 6 9V20ZM8 19V10H15.5C15.7761 10 16 10.2239 16 10.5V13.4C16 13.9601 16 14.2401 16.109 14.454C16.2049 14.6422 16.3578 14.7951 16.546 14.891C16.7599 15 17.0399 15 17.6 15H20.5C20.7761 15 21 15.2239 21 15.5V19H8ZM2 3C1.44772 3 1 3.44772 1 4V19C1 19.5523 1.44772 20 2 20H5V18H3V5H12V7H14V4C14 3.44772 13.5523 3 13 3H2Z"/>
</svg>
