<svg width="24" height="24" viewBox="0 0 24 24" fill="none" xmlns="http://www.w3.org/2000/svg">
<path fill-rule="evenodd" clip-rule="evenodd" d="M12 21C16.9706 21 21 16.9706 21 12C21 7.02944 16.9706 3 12 3C7.02944 3 3 7.02944 3 12C3 16.9706 7.02944 21 12 21ZM12 19C14.3587 19 16.445 17.8333 17.7132 16.0456C16.7744 15.2734 15.6764 14.6876 14.476 14.3449C13.746 14.7618 12.9008 15 12 15C11.0992 15 10.254 14.7618 9.524 14.3449C8.32355 14.6876 7.2256 15.2734 6.28676 16.0456C7.55498 17.8334 9.64124 19 12 19ZM12 14C14.2091 14 16 12.2091 16 10C16 7.79086 14.2091 6 12 6C9.79085 6 7.99999 7.79086 7.99999 10C7.99999 12.2091 9.79085 14 12 14Z" />
</svg>
