<svg width="24" height="24" viewBox="0 0 24 24" fill="none" xmlns="http://www.w3.org/2000/svg">
<path fill-rule="evenodd" clip-rule="evenodd" d="M12 21C16.9706 21 21 16.9706 21 12C21 7.02944 16.9706 3 12 3C7.02944 3 3 7.02944 3 12C3 16.9706 7.02944 21 12 21ZM10 10C10 8.89543 10.8954 8 12 8C13.1046 8 14 8.89543 14 10C14 10.5084 13.8723 10.7858 13.7272 10.9821C13.553 11.2177 13.3089 11.4038 12.9136 11.69L12.8756 11.7175C12.5234 11.9721 12.0393 12.3221 11.6647 12.8288C11.2473 13.3932 11 14.0943 11 15H13C13 14.4916 13.1277 14.2142 13.2728 14.0179C13.447 13.7823 13.6911 13.5962 14.0864 13.31L14.1244 13.2825L14.1244 13.2825C14.4766 13.0279 14.9607 12.6779 15.3353 12.1712C15.7527 11.6068 16 10.9057 16 10C16 7.79086 14.2091 6 12 6C9.79086 6 8 7.79086 8 10H10ZM13 18V16H11V18H13Z" />
</svg>
