<svg viewBox="0 0 22 22" xmlns="http://www.w3.org/2000/svg">
  <path fill-rule="evenodd" clip-rule="evenodd" d="M8.70711 1.29289C8.31658 0.902369 7.68342 0.902369 7.29289 1.29289C6.90237 1.68342 6.90237 2.31658 7.29289 2.70711L8.58579 4L1.29289 11.2929C0.902369 11.6834 0.902369 12.3166 1.29289 12.7071L9.29289 20.7071C9.68342 21.0976 10.3166 21.0976 10.7071 20.7071L18.7071 12.7071C19.0976 12.3166 19.0976 11.6834 18.7071 11.2929L10.7071 3.29289L8.70711 1.29289ZM17 18.4998C17 16.8498 19.5 13 19.5 13C19.5 13 22 16.8498 22 18.4998C22 19.8799 20.8797 21 19.5 21C18.1203 21 17 19.8799 17 18.4998ZM3.41421 12L10 18.5858L16.5858 12L10 5.41421L3.41421 12ZM4.82843 12L10 17.1716L15.1716 12H4.82843Z" />
</svg>
