<svg viewBox="0 0 22 22" xmlns="http://www.w3.org/2000/svg">
  <path fill-rule="evenodd" clip-rule="evenodd" d="M20 11C20 15.9706 15.9706 20 11 20C6.02944 20 2 15.9706 2 11C2 6.02944 6.02944 2 11 2C15.9706 2 20 6.02944 20 11ZM7.74513 5.86088C8.11346 6.2724 8.07844 6.9046 7.66691 7.27292C6.6424 8.18989 6 9.51926 6 11C6 13.7614 8.23858 16 11 16C13.7614 16 16 13.7614 16 11C16 9.51926 15.3576 8.18989 14.3331 7.27292C13.9216 6.9046 13.8865 6.2724 14.2549 5.86088C14.6232 5.44935 15.2554 5.41433 15.6669 5.78266C17.0974 7.06297 18 8.92674 18 11C18 14.866 14.866 18 11 18C7.13401 18 4 14.866 4 11C4 8.92674 4.9026 7.06297 6.33309 5.78266C6.74461 5.41433 7.37681 5.44935 7.74513 5.86088ZM11 4C10.4477 4 10 4.44772 10 5V9C10 9.55228 10.4477 10 11 10C11.5523 10 12 9.55228 12 9V5C12 4.44772 11.5523 4 11 4Z" />
</svg>
