<svg width="24" height="24" viewBox="0 0 24 24" fill="none" xmlns="http://www.w3.org/2000/svg">
<path fill-rule="evenodd" clip-rule="evenodd" d="M3 3C2.44772 3 2 3.44772 2 4V20C2 20.5523 2.44772 21 3 21H11C11.2706 21 11.5296 20.8904 11.7179 20.6961L15.7179 16.5711C15.8988 16.3846 16 16.1349 16 15.875V12H14V14.5C14 14.7761 13.7761 15 13.5 15H11.6C11.0399 15 10.7599 15 10.546 15.109C10.3578 15.2049 10.2049 15.3578 10.109 15.546C10 15.7599 10 16.0399 10 16.6V18.5C10 18.7761 9.77614 19 9.5 19H4V5H14V8H16V4C16 3.44772 15.5523 3 15 3H3ZM8 10L12 7V9H16V11H12V13L8 10ZM13.3927 20.4054C14.1812 20.7864 15.0656 21 16 21C19.3137 21 22 18.3137 22 15C22 11.6863 19.3137 9 16 9V11C18.2092 11 20 12.7909 20 15C20 17.2091 18.2092 19 16 19C15.6197 19 15.2517 18.9469 14.9032 18.8477L13.3927 20.4054Z"/>
</svg>
