<svg width="24" height="24" viewBox="0 0 24 24" fill="none" xmlns="http://www.w3.org/2000/svg">
<path fill-rule="evenodd" clip-rule="evenodd" d="M4 4V5V19V20H5H11H11.4142L11.7071 19.7071L15.7071 15.7071L16 15.4142V15L16 12H14L14 14H10V18H6L6 6H14L14 7H16L16 5V4H15L5 4H4ZM8 10L12 7V9H15.5V9.00002C18.5376 9.00003 21 11.4625 21 14.5C21 17.5376 18.5375 20 15.5 20C14.714 20 13.9665 19.8352 13.2903 19.5381L14.8826 17.9458C15.083 17.9814 15.2893 18 15.5 18C17.433 18 19 16.433 19 14.5C19 12.567 17.433 11 15.5 11V11H12V13L8 10Z" />
</svg>
