<svg viewBox="0 0 22 22" xmlns="http://www.w3.org/2000/svg">
  <path fill-rule="evenodd" clip-rule="evenodd" d="M16.3199 14.9056C17.3729 13.551 18 11.8487 18 10C18 5.58172 14.4183 2 10 2C5.58172 2 2 5.58172 2 10C2 14.4183 5.58172 18 10 18C11.8487 18 13.551 17.3729 14.9056 16.3199L18.2929 19.7071C18.6834 20.0976 19.3166 20.0976 19.7071 19.7071C20.0976 19.3166 20.0976 18.6834 19.7071 18.2929L16.3199 14.9056ZM16 10C16 13.3137 13.3137 16 10 16C6.68629 16 4 13.3137 4 10C4 6.68629 6.68629 4 10 4C13.3137 4 16 6.68629 16 10ZM9 7V5H11V7H9ZM9 9V7H7V9H5V11H7V13H9V15H11V13H13V11H15V9H13V7H11V9H9ZM9 11H7V9H9V11ZM11 11V13H9V11H11ZM11 11V9H13V11H11Z" />
</svg>
