<svg width="24" height="24" viewBox="0 0 24 24" fill="none" xmlns="http://www.w3.org/2000/svg">
<path fill-rule="evenodd" clip-rule="evenodd" d="M9.04113 8.50209C8.99563 8.77446 8.77614 9 8.5 9H6.5C6.22386 9 5.99783 8.77536 6.02052 8.50015C6.27453 5.42031 8.85462 3 12 3C15.3137 3 18 5.68629 18 9C18 11.4772 16.3499 12.6556 15.2994 13.4058C15.2403 13.448 15.1831 13.4889 15.1282 13.5285C14.5558 13.942 14.1753 14.243 13.909 14.603C13.7427 14.8278 13.6016 15.104 13.5372 15.5018C13.4932 15.7744 13.2761 16 13 16H11C10.7239 16 10.4976 15.7757 10.5191 15.5004C10.6033 14.4182 10.9617 13.5428 11.4972 12.8189C12.0747 12.0382 12.8192 11.4955 13.3718 11.0965C14.591 10.2159 15 9.88333 15 9C15 7.34315 13.6569 6 12 6C10.5128 6 9.2783 7.08221 9.04113 8.50209ZM12 22C13.1046 22 14 21.1046 14 20C14 18.8954 13.1046 18 12 18C10.8954 18 10 18.8954 10 20C10 21.1046 10.8954 22 12 22Z" />
</svg>
