<svg width="24" height="24" viewBox="0 0 24 24" fill="none" xmlns="http://www.w3.org/2000/svg">
<path fill-rule="evenodd" clip-rule="evenodd" d="M8.17318 2.7612C8.68343 2.54985 9.26839 2.79215 9.47974 3.30239L10.2451 5.15015C10.4565 5.6604 10.2142 6.24536 9.70392 6.45671C9.19367 6.66806 8.6087 6.42576 8.39735 5.91552L7.63199 4.06776C7.42064 3.55751 7.66294 2.97255 8.17318 2.7612ZM17 12C17 14.7614 14.7614 17 12 17C9.23859 17 7.00002 14.7614 7.00002 12C7.00002 9.23859 9.23859 7.00002 12 7.00002C14.7614 7.00002 17 9.23859 17 12ZM15.6027 18.0845C15.3913 17.5743 14.8064 17.332 14.2961 17.5433C13.7859 17.7547 13.5436 18.3396 13.7549 18.8499L14.5203 20.6976C14.7316 21.2079 15.3166 21.4502 15.8268 21.2388C16.3371 21.0275 16.5794 20.4425 16.368 19.9323L15.6027 18.0845ZM2.76126 8.17318C2.97261 7.66294 3.55758 7.42064 4.06782 7.63199L5.91558 8.39735C6.42582 8.6087 6.66813 9.19367 6.45678 9.70392C6.24543 10.2142 5.66046 10.4565 5.15021 10.2451L3.30245 9.47974C2.79221 9.26839 2.54991 8.68343 2.76126 8.17318ZM20.6976 14.5203L18.8499 13.7549C18.3396 13.5436 17.7547 13.7859 17.5433 14.2961C17.332 14.8064 17.5743 15.3913 18.0845 15.6027L19.9323 16.368C20.4425 16.5794 21.0275 16.3371 21.2388 15.8268C21.4502 15.3166 21.2079 14.7316 20.6976 14.5203ZM2.7612 15.8269C2.54985 15.3166 2.79215 14.7316 3.30239 14.5203L5.15015 13.7549C5.6604 13.5436 6.24536 13.7859 6.45671 14.2961C6.66806 14.8064 6.42576 15.3913 5.91552 15.6027L4.06776 16.368C3.55751 16.5794 2.97255 16.3371 2.7612 15.8269ZM18.0845 8.39737C17.5743 8.60872 17.332 9.19368 17.5433 9.70393C17.7547 10.2142 18.3396 10.4565 18.8499 10.2451L20.6976 9.47976C21.2079 9.26841 21.4502 8.68344 21.2388 8.1732C21.0275 7.66295 20.4425 7.42065 19.9323 7.632L18.0845 8.39737ZM8.17318 21.2388C7.66294 21.0274 7.42064 20.4425 7.63199 19.9322L8.39735 18.0845C8.6087 17.5742 9.19367 17.3319 9.70392 17.5433C10.2142 17.7546 10.4565 18.3396 10.2451 18.8498L9.47974 20.6976C9.26839 21.2078 8.68343 21.4501 8.17318 21.2388ZM13.7549 5.15017C13.5436 5.66042 13.7859 6.24538 14.2961 6.45673C14.8064 6.66808 15.3913 6.42578 15.6027 5.91554L16.368 4.06778C16.5794 3.55753 16.3371 2.97257 15.8268 2.76122C15.3166 2.54987 14.7316 2.79217 14.5203 3.30241L13.7549 5.15017Z" />
</svg>
