<svg width="24" height="24" viewBox="0 0 24 24" fill="none" xmlns="http://www.w3.org/2000/svg">
<path fill-rule="evenodd" clip-rule="evenodd" d="M12.707 4.29273L11.9999 3.58563L11.2928 4.29275L7.29288 8.29275C6.90236 8.68328 6.90237 9.31645 7.2929 9.70696C7.68343 10.0975 8.3166 10.0975 8.70712 9.70694L11.9999 6.41406L15.2929 9.70696C15.6834 10.0975 16.3166 10.0975 16.7071 9.70694C17.0976 9.31641 17.0976 8.68325 16.7071 8.29273L12.707 4.29273ZM8.7071 14.2929C8.31657 13.9023 7.6834 13.9023 7.29288 14.2929C6.90236 14.6834 6.90237 15.3166 7.2929 15.7071L11.293 19.7071L12.0001 20.4142L12.7072 19.7071L16.7071 15.7071C17.0976 15.3165 17.0976 14.6834 16.7071 14.2929C16.3166 13.9023 15.6834 13.9023 15.2929 14.2929L12.0001 17.5858L8.7071 14.2929Z" />
</svg>
