<svg width="24" height="24" viewBox="0 0 24 24" fill="none" xmlns="http://www.w3.org/2000/svg">
<path fill-rule="evenodd" clip-rule="evenodd" d="M9.70662 1.29289C9.31609 0.902369 8.68293 0.902369 8.29241 1.29289C7.90188 1.68342 7.90188 2.31658 8.29241 2.70711L9.58532 4.00002L4.03036 9.55498L4.00212 9.58323L4.00209 9.58325L4.00206 9.58328C3.54695 10.0384 3.16318 10.4221 2.87454 10.7621C2.57235 11.1181 2.31615 11.4913 2.16934 11.9432C1.94616 12.63 1.94616 13.37 2.16934 14.0568C2.31615 14.5087 2.57235 14.8819 2.87454 15.2379C3.16319 15.5779 3.54698 15.9617 4.0021 16.4168L4.03037 16.445L7.55453 19.9692L7.58283 19.9975L7.58291 19.9976C8.03797 20.4526 8.4217 20.8364 8.76169 21.125C9.11765 21.4272 9.49089 21.6834 9.94272 21.8302C10.6296 22.0534 11.3695 22.0534 12.0564 21.8302C12.5082 21.6834 12.8815 21.4272 13.2374 21.125C13.5774 20.8364 13.9612 20.4526 14.4163 19.9975L14.4163 19.9975L14.4446 19.9692L17.9687 16.445L17.997 16.4167L17.997 16.4167L17.997 16.4167C18.4522 15.9616 18.8359 15.5779 19.1246 15.2379C19.4268 14.8819 19.683 14.5087 19.8298 14.0568C20.053 13.37 20.053 12.63 19.8298 11.9432C19.683 11.4913 19.4268 11.1181 19.1246 10.7621C18.8359 10.4221 18.4521 10.0383 17.997 9.58323L17.9687 9.55498L11.7067 3.29289L11.701 3.28728L9.70662 1.29289ZM18.9995 19.8123C18.9995 18.3686 20.9995 15 20.9995 15C20.9995 15 22.9995 18.3686 22.9995 19.8123C22.9995 21.0199 22.1033 22 20.9995 22C19.8957 22 18.9995 21.0199 18.9995 19.8123ZM10.9996 5.41421L5.44458 10.9692C4.95373 11.46 4.62867 11.7862 4.39921 12.0565C4.17734 12.3178 4.10418 12.4605 4.07145 12.5612C3.97879 12.8464 3.97879 13.1536 4.07145 13.4388C4.10418 13.5395 4.17734 13.6822 4.39922 13.9435C4.62867 14.2138 4.95373 14.54 5.44458 15.0308L8.96875 18.555C9.4596 19.0458 9.78575 19.3709 10.056 19.6003C10.3174 19.8222 10.46 19.8954 10.5608 19.9281C10.846 20.0208 11.1532 20.0208 11.4384 19.9281C11.5391 19.8954 11.6817 19.8222 11.9431 19.6003C12.2134 19.3709 12.5395 19.0458 13.0304 18.555L16.5545 15.0308C17.0454 14.54 17.3704 14.2138 17.5999 13.9435C17.8218 13.6822 17.8949 13.5395 17.9277 13.4388C18.0203 13.1536 18.0203 12.8464 17.9277 12.5612C17.8949 12.4605 17.8218 12.3178 17.5999 12.0565C17.3704 11.7862 17.0454 11.46 16.5545 10.9692L10.9996 5.41421ZM11.1292 18.977C11.2251 18.9459 11.3083 18.8627 11.4746 18.6964L16.4609 13.7102C16.6836 13.4874 16.795 13.376 16.8025 13.2804C16.8091 13.1974 16.7755 13.1163 16.7122 13.0623C16.6393 13 16.4817 13 16.1667 13H5.83219C5.51717 13 5.35966 13 5.28672 13.0623C5.22343 13.1163 5.18985 13.1974 5.19638 13.2804C5.2039 13.376 5.31528 13.4874 5.53804 13.7102L10.5243 18.6964C10.6906 18.8627 10.7738 18.9459 10.8697 18.977C10.954 19.0045 11.0449 19.0045 11.1292 18.977Z"/>
</svg>
