<svg viewBox="0 0 22 22" xmlns="http://www.w3.org/2000/svg">
  <path fill-rule="evenodd" clip-rule="evenodd" d="M6.70711 5.29289C6.31658 4.90237 5.68342 4.90237 5.29289 5.29289C4.90237 5.68342 4.90237 6.31658 5.29289 6.70711L9.58579 11L5.29289 15.2929C4.90237 15.6834 4.90237 16.3166 5.29289 16.7071C5.68342 17.0976 6.31658 17.0976 6.70711 16.7071L11 12.4142L15.2929 16.7071C15.6834 17.0976 16.3166 17.0976 16.7071 16.7071C17.0976 16.3166 17.0976 15.6834 16.7071 15.2929L12.4142 11L16.7071 6.70711C17.0976 6.31658 17.0976 5.68342 16.7071 5.29289C16.3166 4.90237 15.6834 4.90237 15.2929 5.29289L11 9.58579L6.70711 5.29289Z" />
</svg>
