<svg width="24" height="24" viewBox="0 0 24 24" fill="none" xmlns="http://www.w3.org/2000/svg">
<path fill-rule="evenodd" clip-rule="evenodd" d="M21 12C21 16.9706 16.9706 21 12 21C7.02944 21 3 16.9706 3 12C3 7.02944 7.02944 3 12 3C16.9706 3 21 7.02944 21 12ZM8.74513 6.86088C9.11346 7.2724 9.07844 7.9046 8.66691 8.27292C7.6424 9.18989 7 10.5193 7 12C7 14.7614 9.23858 17 12 17C14.7614 17 17 14.7614 17 12C17 10.5193 16.3576 9.18989 15.3331 8.27292C14.9216 7.9046 14.8865 7.2724 15.2549 6.86088C15.6232 6.44935 16.2554 6.41433 16.6669 6.78266C18.0974 8.06297 19 9.92674 19 12C19 15.866 15.866 19 12 19C8.13401 19 5 15.866 5 12C5 9.92674 5.9026 8.06297 7.33309 6.78266C7.74461 6.41433 8.37681 6.44935 8.74513 6.86088ZM12 5C11.4477 5 11 5.44772 11 6V10C11 10.5523 11.4477 11 12 11C12.5523 11 13 10.5523 13 10V6C13 5.44772 12.5523 5 12 5Z" />
</svg>
