<svg width="24" height="24" viewBox="0 0 24 24" fill="none" xmlns="http://www.w3.org/2000/svg">
<path fill-rule="evenodd" clip-rule="evenodd" d="M9.70711 2.29289C9.31658 1.90237 8.68342 1.90237 8.29289 2.29289C7.90237 2.68342 7.90237 3.31658 8.29289 3.70711L9.58579 5L2.29289 12.2929C1.90237 12.6834 1.90237 13.3166 2.29289 13.7071L10.2929 21.7071C10.6834 22.0976 11.3166 22.0976 11.7071 21.7071L19.7071 13.7071C20.0976 13.3166 20.0976 12.6834 19.7071 12.2929L11.7071 4.29289L9.70711 2.29289ZM18 19.4998C18 17.8498 20.5 14 20.5 14C20.5 14 23 17.8498 23 19.4998C23 20.8799 21.8797 22 20.5 22C19.1203 22 18 20.8799 18 19.4998ZM4.41421 13L11 19.5858L17.5858 13L11 6.41421L4.41421 13ZM5.82843 13L11 18.1716L16.1716 13H5.82843Z" />
</svg>
