<svg width="24" height="24" viewBox="0 0 24 24" fill="none" xmlns="http://www.w3.org/2000/svg">
<path fill-rule="evenodd" clip-rule="evenodd" d="M6.70711 5.70711C7.09763 5.31658 7.09763 4.68342 6.70711 4.29289C6.31658 3.90237 5.68342 3.90237 5.29289 4.29289L3.29289 6.29289L3 6.58579V7V10V11H4H20H21V10V7V6.58579L20.7071 6.29289L18.7071 4.29289C18.3166 3.90237 17.6834 3.90237 17.2929 4.29289C16.9024 4.68342 16.9024 5.31658 17.2929 5.70711L18.5858 7L14 6.99999V7.99999H10V7H5.41421L6.70711 5.70711ZM6.70711 14.707C7.09763 14.3165 7.09763 13.6833 6.70711 13.2928C6.31658 12.9023 5.68342 12.9023 5.29289 13.2928L3.29289 15.2928L3 15.5857V15.9999V18.9999V19.9999H4H20H21V18.9999V15.9999V15.5857L20.7071 15.2928L18.7071 13.2928C18.3166 12.9023 17.6834 12.9023 17.2929 13.2928C16.9024 13.6833 16.9024 14.3165 17.2929 14.707L18.5858 15.9999L14 15.9999V16.9999H10V15.9999H5.41421L6.70711 14.707Z"/>
</svg>