<svg width="24" height="24" viewBox="0 0 24 24" fill="none" xmlns="http://www.w3.org/2000/svg">
<path fill-rule="evenodd" clip-rule="evenodd" d="M4 11C4 14.866 7.13401 18 11 18C14.866 18 18 14.866 18 11C18 7.13401 14.866 4 11 4C7.13401 4 4 7.13401 4 11ZM2 11C2 15.9706 6.02944 20 11 20C13.125 20 15.078 19.2635 16.6177 18.0319L20.2929 21.7071C20.6834 22.0976 21.3166 22.0976 21.7071 21.7071C22.0976 21.3166 22.0976 20.6834 21.7071 20.2929L18.0319 16.6177C19.2635 15.078 20 13.125 20 11C20 6.02944 15.9706 2 11 2C6.02944 2 2 6.02944 2 11ZM10.0545 6.273C10 6.37996 10 6.51997 10 6.8V8H8.8C8.51997 8 8.37996 8 8.273 8.0545C8.17892 8.10243 8.10243 8.17892 8.0545 8.273C8 8.37996 8 8.51997 8 8.8V10H6.8C6.51997 10 6.37996 10 6.273 10.0545C6.17892 10.1024 6.10243 10.1789 6.0545 10.273C6 10.38 6 10.52 6 10.8V11.2C6 11.48 6 11.62 6.0545 11.727C6.10243 11.8211 6.17892 11.8976 6.273 11.9455C6.37996 12 6.51997 12 6.8 12H8V13.2C8 13.48 8 13.62 8.0545 13.727C8.10243 13.8211 8.17892 13.8976 8.273 13.9455C8.37996 14 8.51997 14 8.8 14H10V15.2C10 15.48 10 15.62 10.0545 15.727C10.1024 15.8211 10.1789 15.8976 10.273 15.9455C10.38 16 10.52 16 10.8 16H11.2C11.48 16 11.62 16 11.727 15.9455C11.8211 15.8976 11.8976 15.8211 11.9455 15.727C12 15.62 12 15.48 12 15.2V14H13.2C13.48 14 13.62 14 13.727 13.9455C13.8211 13.8976 13.8976 13.8211 13.9455 13.727C14 13.62 14 13.48 14 13.2V12H15.2C15.48 12 15.62 12 15.727 11.9455C15.8211 11.8976 15.8976 11.8211 15.9455 11.727C16 11.62 16 11.48 16 11.2V10.8C16 10.52 16 10.38 15.9455 10.273C15.8976 10.1789 15.8211 10.1024 15.727 10.0545C15.62 10 15.48 10 15.2 10H14V8.8C14 8.51997 14 8.37996 13.9455 8.273C13.8976 8.17892 13.8211 8.10243 13.727 8.0545C13.62 8 13.48 8 13.2 8H12V6.8C12 6.51997 12 6.37996 11.9455 6.273C11.8976 6.17892 11.8211 6.10243 11.727 6.0545C11.62 6 11.48 6 11.2 6H10.8C10.52 6 10.38 6 10.273 6.0545C10.1789 6.10243 10.1024 6.17892 10.0545 6.273ZM12 10V8H10V10H8V12H10V14H12V12H14V10H12ZM12 10V12H10V10H12Z"/>
</svg>
