<svg viewBox="0 0 22 22" xmlns="http://www.w3.org/2000/svg">
  <path fill-rule="evenodd" clip-rule="evenodd" d="M7.17318 1.7612C7.68343 1.54985 8.26839 1.79215 8.47974 2.30239L9.24511 4.15015C9.45646 4.6604 9.21416 5.24536 8.70392 5.45671C8.19367 5.66806 7.6087 5.42576 7.39735 4.91552L6.63199 3.06776C6.42064 2.55751 6.66294 1.97255 7.17318 1.7612ZM16 11C16 13.7614 13.7614 16 11 16C8.23859 16 6.00002 13.7614 6.00002 11C6.00002 8.23859 8.23859 6.00002 11 6.00002C13.7614 6.00002 16 8.23859 16 11ZM14.6027 17.0845C14.3913 16.5743 13.8064 16.332 13.2961 16.5433C12.7859 16.7547 12.5436 17.3396 12.7549 17.8499L13.5203 19.6976C13.7316 20.2079 14.3166 20.4502 14.8268 20.2388C15.3371 20.0275 15.5794 19.4425 15.368 18.9323L14.6027 17.0845ZM1.76126 7.17318C1.97261 6.66294 2.55758 6.42064 3.06782 6.63199L4.91558 7.39735C5.42582 7.6087 5.66813 8.19367 5.45678 8.70392C5.24543 9.21416 4.66046 9.45646 4.15021 9.24511L2.30245 8.47974C1.79221 8.26839 1.54991 7.68343 1.76126 7.17318ZM19.6976 13.5203L17.8499 12.7549C17.3396 12.5436 16.7547 12.7859 16.5433 13.2961C16.332 13.8064 16.5743 14.3913 17.0845 14.6027L18.9323 15.368C19.4425 15.5794 20.0275 15.3371 20.2388 14.8268C20.4502 14.3166 20.2079 13.7316 19.6976 13.5203ZM1.7612 14.8269C1.54985 14.3166 1.79215 13.7316 2.30239 13.5203L4.15015 12.7549C4.6604 12.5436 5.24536 12.7859 5.45671 13.2961C5.66806 13.8064 5.42576 14.3913 4.91552 14.6027L3.06776 15.368C2.55751 15.5794 1.97255 15.3371 1.7612 14.8269ZM17.0845 7.39737C16.5743 7.60872 16.332 8.19368 16.5433 8.70393C16.7547 9.21417 17.3396 9.45648 17.8499 9.24513L19.6976 8.47976C20.2079 8.26841 20.4502 7.68344 20.2388 7.1732C20.0275 6.66295 19.4425 6.42065 18.9323 6.632L17.0845 7.39737ZM7.17318 20.2388C6.66294 20.0274 6.42064 19.4425 6.63199 18.9322L7.39735 17.0845C7.6087 16.5742 8.19367 16.3319 8.70392 16.5433C9.21416 16.7546 9.45646 17.3396 9.24511 17.8498L8.47974 19.6976C8.26839 20.2078 7.68343 20.4501 7.17318 20.2388ZM12.7549 4.15017C12.5436 4.66042 12.7859 5.24538 13.2961 5.45673C13.8064 5.66808 14.3913 5.42578 14.6027 4.91554L15.368 3.06778C15.5794 2.55753 15.3371 1.97257 14.8268 1.76122C14.3166 1.54987 13.7316 1.79217 13.5203 2.30241L12.7549 4.15017Z" />
</svg>
