<svg viewBox="0 0 22 22" xmlns="http://www.w3.org/2000/svg">
  <path fill-rule="evenodd" clip-rule="evenodd" d="M11 20C15.9706 20 20 15.9706 20 11C20 6.02944 15.9706 2 11 2C6.02944 2 2 6.02944 2 11C2 15.9706 6.02944 20 11 20ZM11 18C13.3588 18 15.445 16.8334 16.7132 15.0456C15.7744 14.2734 14.6765 13.6876 13.476 13.3449C12.746 13.7618 11.9008 14 11 14C10.0992 14 9.25399 13.7618 8.524 13.3449C7.32355 13.6876 6.22561 14.2734 5.28677 15.0456C6.55499 16.8333 8.64126 18 11 18ZM11 13C13.2091 13 15 11.2091 15 9C15 6.79086 13.2091 5 11 5C8.79085 5 6.99999 6.79086 6.99999 9C6.99999 11.2091 8.79085 13 11 13Z" />
</svg>
